<svg xmlns="http://www.w3.org/2000/svg" xmlns:xlink= "http://www.w3.org/1999/xlink" id="lock-brand" viewBox="0 0 12 15"><title>lock</title> <g id="January-'20" stroke="none" stroke-width="1" fill="none" fill-rule="evenodd"><g id="resources-dropdown" transform="translate(-1161.000000, -38.000000)" fill="#FF6C36" fill-rule="nonzero"><g id="Group-21" transform="translate(1161.000000, 28.000000)"><g id="Group-11" transform="translate(0.000000, 10.000000)"><g id="Group-7"><g id="lock"><path d="M5.71428571,11.4285714 C6.50326393,11.4285714 7.14285714,10.7889782 7.14285714,10 C7.14285714,9.20714286 6.5,8.57142857 5.71428571,8.57142857 C4.9253075,8.57142857 4.28571429,9.21102179 4.28571429,10 C4.28571429,10.7889782 4.9253075,11.4285714 5.71428571,11.4285714 M10,5 C10.7889782,5 11.4285714,5.63959321 11.4285714,6.42857143 L11.4285714,13.5714286 C11.4285714,14.3604068 10.7889782,15 10,15 L1.42857143,15 C0.639593215,15 0,14.3604068 0,13.5714286 L0,6.42857143 C0,5.63571429 0.642857143,5 1.42857143,5 L2.14285714,5 L2.14285714,3.57142857 C2.14285714,1.59898304 3.74184018,0 5.71428571,0 C6.66148746,0 7.5698943,0.37627443 8.23966708,1.04604721 C8.90943986,1.71581999 9.28571429,2.62422682 9.28571429,3.57142857 L9.28571429,5 L10,5 M5.71428571,1.42857143 C4.53081839,1.42857143 3.57142857,2.38796125 3.57142857,3.57142857 L3.57142857,5 L7.85714286,5 L7.85714286,3.57142857 C7.85714286,2.38796125 6.89775304,1.42857143 5.71428571,1.42857143 Z" id="Shape"></path></g></g></g></g></g></g></svg>