<?xml version="1.0" encoding="UTF-8"?>
<svg width="39px" height="39px" viewBox="0 0 39 39" version="1.1" xmlns="http://www.w3.org/2000/svg" xmlns:xlink="http://www.w3.org/1999/xlink">
    <!-- Generator: Sketch 53.2 (72643) - https://sketchapp.com -->
    <title>creation</title>
    <desc>Created with Sketch.</desc>
    <g id="Page-4" stroke="none" stroke-width="1" fill="none" fill-rule="evenodd">
        <g id="Subscriptions-version-2" transform="translate(-416.000000, -830.000000)" fill="#FFB400" fill-rule="nonzero">
            <g id="Group-32" transform="translate(235.000000, 830.000000)">
                <g id="creation" transform="translate(181.000000, 0.000000)">
                    <path d="M31.9090909,-8.52651283e-14 L34.125,4.875 L39,7.09090909 L34.125,9.32454545 L31.9090909,14.1818182 L29.6754545,9.32454545 L24.8181818,7.09090909 L29.6754545,4.875 L31.9090909,-8.52651283e-14 Z M14.1818182,5.31818182 L18.6136364,15.0681818 L28.3636364,19.5 L18.6136364,23.9318182 L14.1818182,33.6818182 L9.75,23.9318182 L0,19.5 L9.75,15.0681818 L14.1818182,5.31818182 Z M31.9090909,24.8181818 L34.125,29.6754545 L39,31.9090909 L34.125,34.125 L31.9090909,39 L29.6754545,34.125 L24.8181818,31.9090909 L29.6754545,29.6754545 L31.9090909,24.8181818 Z" id="Combined-Shape"></path>
                </g>
            </g>
        </g>
    </g>
</svg>